<?xml version="1.0" encoding="utf-8"?>
<?xml-stylesheet type="text/xsl" href="rss1.xsl"?>
<rss version="2.0" xmlns:atom="http://www.w3.org/2005/Atom" xmlns:content="http://purl.org/rss/1.0/modules/content/" xmlns:dc="http://purl.org/dc/elements/1.1/" xmlns:media="http://search.yahoo.com/mrss/">
<channel>
 <title>Getty</title>
 <link>http://www.gettyimg.com/</link>
 <atom:link href="http://www.gettyimg.com/" rel="self" type="application/rss+xml" />

 
                <item>
                <title><![CDATA[【HD Live Performances】HDTV - Enrique Iglesias - Bailando (Live) CNN New Year's Eve Live 2024 HDTV MPEG2 1080i DD5.1-KishanIglesias]]></title>
                <link><![CDATA[https://sharemania.us/threads/enrique-iglesias-bailando-live-cnn-new-years-eve-live-2024-hdtv-mpeg2-1080i-dd5-1-kishaniglesias.235091/]]></link>
                <description><![CDATA[<article>
<blockquote class="messageText SelectQuoteContainer ugc baseHtml">
<div style="text-align: center">Enrique Iglesias - Bailando (Live) CNN New Year's Eve Live with Anderson Cooper &amp; Andy Cohen 2024 HDTV MPEG2 1080i DD5.1-KishanIglesias<br>
<br>
<img src="https://i.imgur.com/UBq7kti.jpg" class="bbCodeImage LbImage" alt="[​IMG]" data-url="https://i.imgur.com/UBq7kti.jpg" style=""> <br>
<br>
<b> Special Thanks and Credit to <a href="https://sharemania.us/members/ilya2129.78522/" class="internalLink"><span style="font-size: 26px">ilya2129</span></a> for recording and releasing it </b><br>
​</div>
<div class="bbCodeBlock bbCodeCode">
<div class="type">Code:</div>
<pre>General
Complete name                  : C:\Enrique Iglesias - Bailando (Live) CNN New Year's Eve Live with Anderson Cooper &amp; Andy Cohen 2024 HDTV MPEG2 1080i DD5.1-KishanIglesias.mp4
Format                         : MPEG-4
Format profile                 : Base Media
Codec ID                       : isom (isom/iso2/avc1/mp41)
File size                      : 329 MiB
Duration                       : 4 min 52 s
Overall bit rate mode          : Constant
Overall bit rate               : 9 422 kb/s
Writing application            : Lavf58.44.100

Video
ID                             : 1
Format                         : AVC
Format/Info                    : Advanced Video Codec
Format profile                 : Main@L4
Format settings                : CABAC / 1 Ref Frames
Format settings, CABAC         : Yes
Format settings, Reference fra : 1 frame
Format settings, GOP           : M=1, N=29
Codec ID                       : avc1
Codec ID/Info                  : Advanced Video Coding
Duration                       : 4 min 52 s
Bit rate mode                  : Constant
Bit rate                       : 9 020 kb/s
Width                          : 1 920 pixels
Height                         : 1 080 pixels
Display aspect ratio           : 16:9
Frame rate mode                : Constant
Frame rate                     : 29.970 (30000/1001) FPS
Color space                    : YUV
Chroma subsampling             : 4:2:0
Bit depth                      : 8 bits
Scan type                      : Progressive
Bits/(Pixel*Frame)             : 0.145
Stream size                    : 315 MiB (96%)
Codec configuration box        : avcC

Audio
ID                             : 2
Format                         : AAC LC
Format/Info                    : Advanced Audio Codec Low Complexity
Codec ID                       : mp4a-40-2
Duration                       : 4 min 52 s
Bit rate mode                  : Constant
Bit rate                       : 384 kb/s
Channel(s)                     : 6 channels
Channel layout                 : C L R Ls Rs LFE
Sampling rate                  : 48.0 kHz
Frame rate                     : 46.875 FPS (1024 SPF)
Compression mode               : Lossy
Stream size                    : 13.4 MiB (4%)
Language                       : English
Default                        : Yes
Alternate group                : 1</pre>
</div><div style="text-align: center"><div style="text-align: center"><br>
<div class="bbCodeBlock bbCodeVfcHH HiddenContent">
<div class="attribution type">Hidden Content:</div>
<blockquote>You must reply before you can see the hidden data contained here.</blockquote>
</div></div></div>
<div class="messageTextEndMarker">&nbsp;</div>
</blockquote>
</article>]]></description>
                <author><![CDATA[KishanIglesias]]></author>
                </item>

                
                <item>
                <title><![CDATA[【BLU-RAY &amp; BD RIP】Fall Out Boy - Irresistable (Blu-ray 1080p PCM)]]></title>
                <link><![CDATA[https://sharemania.us/threads/fall-out-boy-irresistable-blu-ray-1080p-pcm.235092/]]></link>
                <description><![CDATA[<article>
<blockquote class="messageText SelectQuoteContainer ugc baseHtml">
Thanks
<div class="messageTextEndMarker">&nbsp;</div>
</blockquote>
</article>]]></description>
                <author><![CDATA[f3rn3y]]></author>
                </item>

                </channel></rss>